<svg width="1508" height="2662" viewBox="0 0 1508 2662" fill="none" xmlns="http://www.w3.org/2000/svg">
<path d="M1507 5C1507 5 924.358 116.958 882.85 264.004C841.342 411.05 1368.09 554.099 1371.76 816.212C1375.44 1078.32 1242.46 1190.25 1015.46 1352.14C788.447 1514.04 117.708 1689.35 71.0575 1686.5C24.407 1683.64 -78.519 1838.66 136 1958.58C350.519 2078.51 979.824 2591.9 1232.91 2626.73C1486 2661.57 1607.59 2520.8 1354.13 2464.56C1048.8 2396.79 721.226 2649.86 2 2657" stroke="#CE3252" stroke-width="10"/>
<path d="M1507 5C1507 5 924.358 116.958 882.85 264.004C841.342 411.05 1368.09 554.099 1371.76 816.212C1375.44 1078.32 1242.46 1190.25 1015.46 1352.14C788.447 1514.04 117.708 1689.35 71.0575 1686.5C24.407 1683.64 -78.519 1838.66 136 1958.58C350.519 2078.51 979.824 2591.9 1232.91 2626.73C1486 2661.57 1607.59 2520.8 1354.13 2464.56C1048.8 2396.79 721.226 2649.86 2 2657" stroke="url(#paint0_linear_848_873)" stroke-opacity="0.2" stroke-width="10"/>
<defs>
<linearGradient id="paint0_linear_848_873" x1="604.731" y1="1178.32" x2="229.546" y2="1694.5" gradientUnits="userSpaceOnUse">
<stop stop-color="#FFD7D7"/>
<stop offset="1" stop-color="#FEB5B5" stop-opacity="0"/>
</linearGradient>
</defs>
</svg>
