<svg width="25" height="18" viewBox="0 0 25 18" fill="none" xmlns="http://www.w3.org/2000/svg">
<path d="M24.2609 3.9498C24.2609 3.9498 24.0266 2.29512 23.3047 1.56855C22.3906 0.612305 21.3688 0.607617 20.9 0.551367C17.5438 0.307617 12.5047 0.307617 12.5047 0.307617H12.4953C12.4953 0.307617 7.45625 0.307617 4.1 0.551367C3.63125 0.607617 2.60938 0.612305 1.69531 1.56855C0.973438 2.29512 0.74375 3.9498 0.74375 3.9498C0.74375 3.9498 0.5 5.89512 0.5 7.83574V9.65449C0.5 11.5951 0.739062 13.5404 0.739062 13.5404C0.739062 13.5404 0.973437 15.1951 1.69062 15.9217C2.60469 16.8779 3.80469 16.8451 4.33906 16.9482C6.26094 17.1311 12.5 17.1873 12.5 17.1873C12.5 17.1873 17.5438 17.1779 20.9 16.9389C21.3688 16.8826 22.3906 16.8779 23.3047 15.9217C24.0266 15.1951 24.2609 13.5404 24.2609 13.5404C24.2609 13.5404 24.5 11.5998 24.5 9.65449V7.83574C24.5 5.89512 24.2609 3.9498 24.2609 3.9498ZM10.0203 11.8623V5.11699L16.5031 8.50137L10.0203 11.8623Z" fill="white"/>
</svg>
